<svg aria-hidden="true" style="position: absolute; width: 0; height: 0; overflow: hidden;" version="1.1" xmlns="http://www.w3.org/2000/svg" xmlns:xlink="http://www.w3.org/1999/xlink">
<defs>
<symbol id="icon-chevron-thin-down" viewBox="0 0 20 20">
<title>chevron-thin-down</title>
<path d="M17.418 6.109c0.272-0.268 0.709-0.268 0.979 0s0.271 0.701 0 0.969l-7.908 7.83c-0.27 0.268-0.707 0.268-0.979 0l-7.908-7.83c-0.27-0.268-0.27-0.701 0-0.969s0.709-0.268 0.979 0l7.419 7.141 7.418-7.141z"></path>
</symbol>
<symbol id="icon-drop" viewBox="0 0 20 20">
<title>drop</title>
<path d="M10.203 0.561c-0.027-0.215-0.38-0.215-0.406 0-0.883 7.107-5.398 8.572-5.398 13.512 0 3.053 2.564 5.527 5.601 5.527s5.6-2.475 5.6-5.527c0-4.94-4.514-6.405-5.397-13.512zM9.35 8.418c-0.059 0.219-0.123 0.444-0.189 0.678-0.401 1.424-0.856 3.039-0.856 4.906 0 1.012-0.598 1.371-1.156 1.371-0.639 0-1.156-0.523-1.156-1.166 0-2.207 1.062-3.649 2-4.92 0.295-0.398 0.572-0.775 0.797-1.15 0.103-0.172 0.38-0.164 0.506 0.006 0.059 0.080 0.079 0.182 0.054 0.275z"></path>
<circle
     style="opacity:0.98999999;fill:none;fill-opacity:1;fill-rule:nonzero;stroke:#ffffff;stroke-width:1;stroke-linejoin:round;stroke-miterlimit:3.5;stroke-dasharray:none;stroke-opacity:1;paint-order:markers fill stroke"
     id="path22"
     cx="6.2873135"
     cy="2.410944"
     r="1.511194" />
  <circle
     r="1.511194"
     cy="2.410944"
     cx="13.973881"
     id="circle24"
     style="opacity:0.98999999;fill:none;fill-opacity:1;fill-rule:nonzero;stroke:#ffffff;stroke-width:1;stroke-linejoin:round;stroke-miterlimit:3.5;stroke-dasharray:none;stroke-opacity:1;paint-order:markers fill stroke" />
</symbol>
<symbol id="icon-thermometer" viewBox="0 0 20 20">
<title>thermometer</title>
<path d="M13 10.123v-9.123c0-0.553-0.447-1-1-1h-4.201c-0.552 0-0.799 0.447-0.799 1v9.123c-1.444 0.969-2.4 2.608-2.4 4.477 0 2.982 2.418 5.4 5.4 5.4s5.4-2.418 5.4-5.4c0-1.869-0.956-3.508-2.4-4.477zM10 17.9c-1.823 0-3.3-1.477-3.3-3.3 0-1.472 0.97-2.703 2.3-3.129v-7.471h2v7.471c1.33 0.426 2.3 1.657 2.3 3.129 0 1.822-1.477 3.3-3.3 3.3z"></path>
</symbol>
<symbol id="icon-time-slot" viewBox="0 0 20 20">
<title>time-slot</title>
<path d="M10 0.4c-5.302 0-9.6 4.298-9.6 9.6s4.298 9.6 9.6 9.6c5.301 0 9.6-4.298 9.6-9.601 0-5.301-4.299-9.599-9.6-9.599zM10 17.599c-4.197 0-7.6-3.402-7.6-7.6 0-4.197 3.402-7.6 7.6-7.6v0 7.601l6.792-3.396c0.513 1.023 0.808 2.173 0.808 3.396 0 4.197-3.403 7.599-7.6 7.599z"></path>
</symbol>
</defs>
</svg>
