<?xml version="1.0" encoding="UTF-8" standalone="no"?>
<!-- Generated by IcoMoon.io -->

<svg
   xmlns:dc="http://purl.org/dc/elements/1.1/"
   xmlns:cc="http://creativecommons.org/ns#"
   xmlns:rdf="http://www.w3.org/1999/02/22-rdf-syntax-ns#"
   xmlns:svg="http://www.w3.org/2000/svg"
   xmlns="http://www.w3.org/2000/svg"
   xmlns:sodipodi="http://sodipodi.sourceforge.net/DTD/sodipodi-0.dtd"
   xmlns:inkscape="http://www.inkscape.org/namespaces/inkscape"
   version="1.1"
   width="20"
   height="20"
   viewBox="0 0 20 20"
   id="svg14"
   sodipodi:docname="drop.svg"
   inkscape:version="0.92.4 (5da689c313, 2019-01-14)">
  <metadata
     id="metadata20">
    <rdf:RDF>
      <cc:Work
         rdf:about="">
        <dc:format>image/svg+xml</dc:format>
        <dc:type
           rdf:resource="http://purl.org/dc/dcmitype/StillImage" />
      </cc:Work>
    </rdf:RDF>
  </metadata>
  <defs
     id="defs18" />
  <sodipodi:namedview
     pagecolor="#ffffff"
     bordercolor="#666666"
     borderopacity="1"
     objecttolerance="10"
     gridtolerance="10"
     guidetolerance="10"
     inkscape:pageopacity="0"
     inkscape:pageshadow="2"
     inkscape:window-width="1366"
     inkscape:window-height="705"
     id="namedview16"
     showgrid="false"
     inkscape:zoom="26.8"
     inkscape:cx="10"
     inkscape:cy="12.628625"
     inkscape:window-x="-8"
     inkscape:window-y="-8"
     inkscape:window-maximized="1"
     inkscape:current-layer="svg14" />
  <title
     id="title10">drop</title>
  <path
     d="M10.203 0.561c-0.027-0.215-0.38-0.215-0.406 0-0.883 7.107-5.398 8.572-5.398 13.512 0 3.053 2.564 5.527 5.601 5.527s5.6-2.475 5.6-5.527c0-4.94-4.514-6.405-5.397-13.512zM9.35 8.418c-0.059 0.219-0.123 0.444-0.189 0.678-0.401 1.424-0.856 3.039-0.856 4.906 0 1.012-0.598 1.371-1.156 1.371-0.639 0-1.156-0.523-1.156-1.166 0-2.207 1.062-3.649 2-4.92 0.295-0.398 0.572-0.775 0.797-1.15 0.103-0.172 0.38-0.164 0.506 0.006 0.059 0.080 0.079 0.182 0.054 0.275z"
     id="path12" />
  <circle
     style="opacity:0.98999999;fill:none;fill-opacity:1;fill-rule:nonzero;stroke:#ffffff;stroke-width:1;stroke-linejoin:round;stroke-miterlimit:3.5;stroke-dasharray:none;stroke-opacity:1;paint-order:markers fill stroke"
     id="path22"
     cx="6.2873135"
     cy="2.410944"
     r="1.511194" />
  <circle
     r="1.511194"
     cy="2.410944"
     cx="13.973881"
     id="circle24"
     style="opacity:0.98999999;fill:#ffffff;fill-opacity:1;fill-rule:nonzero;stroke:#fffff;stroke-width:1;stroke-linejoin:round;stroke-miterlimit:3.5;stroke-dasharray:none;stroke-opacity:1;paint-order:markers fill stroke" />
</svg>
