<?xml version="1.0"?>
<svg xmlns="http://www.w3.org/2000/svg" height="512px" viewBox="0 0 511 511.99771" width="512px"><path d="m487.628906 139.1875c-27.707031-27.707031-70.351562-30.566406-97.78125-3.140625-14.59375 14.597656-20.582031 33.949219-17.371094 56.058594-48.855468-7.101563-80.980468 33.570312-74.308593 74.304687-17.3125 24.605469-26.785157 54.320313-26.785157 84.460938v10.132812h-30v-86.832031c0-25.074219-5.804687-53.195313-16.457031-80.285156 12.550781-10.507813 22.878907-22.59375 29.339844-36.453125 17.519531-37.566406 1.300781-82.144532-36.273437-99.664063-21.761719-10.148437-45.652344-9.152343-65.550782 1.808594-5.429687-22.378906-20.855468-42.101563-43.203125-52.523437-37.570312-17.519532-82.148437-1.296876-99.667969 36.277343-31.304687 67.132813 27.359376 176.945313 41.136719 201.082031 3.65625 7.613282 9.191407 12.882813 17.621094 11.691407 1.054687-.148438 75.078125-11.585938 131.199219-44.527344 7.691406 21.472656 11.855468 43.207031 11.855468 62.59375v86.832031h-26.972656l-35.542968-53.320312c-4.597657-6.894532-13.910157-8.753906-20.800782-4.160156-6.894531 4.59375-8.757812 13.90625-4.160156 20.800781l24.453125 36.679687h-41.972656c-8.285157 0-15 6.714844-15 14.996094v30c0 19.554688 12.539062 36.226562 30 42.417969v17.582031c0 11.953125 4.59375 23.34375 12.941406 32.078125 8.582031 8.976563 19.96875 13.917969 32.054687 13.917969h179.996094c12.089844 0 23.472656-4.941406 32.054688-13.921875 8.347656-8.730469 12.945312-20.121094 12.945312-32.074219v-17.582031c17.457032-6.191407 29.996094-22.863281 29.996094-42.417969v-30c0-8.28125-6.714844-14.996094-14.996094-14.996094h-105v-10.132812c0-17.648438 4.089844-35.109375 11.734375-50.90625 1.984375 2.53125 4.125 4.972656 6.445313 7.289062 35.398437 35.402344 90.957031 24.175782 172.523437 18.351563 7.421875-.519531 13.367188-6.5 13.894531-13.894531 5.839844-81.746094 17.019532-137.152344-18.347656-172.523438zm-423.652344 66.148438c-19.335937-39.808594-45.890624-109.28125-27.214843-149.324219 10.511719-22.542969 37.253906-32.277344 59.796875-21.765625 22.359375 10.425781 34.546875 37.054687 24.199218 59.582031zm25.546876 15.941406s58.226562-114.355469 58.308593-114.527344c.007813-.007812.011719-.019531.015625-.027344 10.617188-22.765625 35.195313-32.152344 57.46875-21.765625 22.539063 10.511719 32.277344 37.253907 21.765625 59.800781-19.164062 41.089844-93.234375 65.980469-137.558593 76.519532zm301.855468 184.726562c0 8.269532-6.726562 15-15 15h-44.996094c-8.285156 0-15 6.714844-15 14.996094 0 8.285156 6.714844 15 15 15h29.996094v15c0 8.523438-7.007812 16-15 16h-179.992187c-7.992188 0-15-7.476562-15-16v-15h30c8.28125 0 15-6.714844 15-15 0-8.28125-6.71875-14.996094-15-14.996094h-45c-8.269531 0-15-6.730468-15-15v-15h269.992187zm19.683594-248.742187c14.886719-14.886719 38.679688-13.535157 55.355469 3.140625 20.699219 20.699218 17.292969 56.648437 12.222656 116.652344l-70.832031-70.828126c-3.25-6.671874-13.789063-31.925781 3.253906-48.964843zm-70.289062 128.78125c-8.078126-8.074219-12.855469-18.199219-13.457032-28.503907-1.066406-18.253906 12.273438-36.308593 34.203125-36.308593 11.117188 0 21.207031 4.320312 25.074219 6.207031l70.832031 70.832031c-60 5.070313-95.949219 8.476563-116.652343-12.226562zm0 0" fill="#333"/></svg>
