<?xml version="1.0"?>
<svg xmlns="http://www.w3.org/2000/svg" height="512px" viewBox="0 -12 512 511" width="512px"><path d="m90.332031 43.992188v86.992187l75.335938 43.492187 75.332031-43.492187v-86.992187l-75.332031-43.492188zm0 0" fill="#333"/><path d="m165.667969 313.421875-75.335938 43.496094v86.988281l75.335938 43.492188 75.332031-43.492188v-86.988281zm0 0" fill="#333"/><path d="m346.332031 174.476562 75.335938-43.492187v-86.992187l-75.335938-43.492188-75.332031 43.492188v86.992187zm0 0" fill="#333"/><path d="m150.667969 287.445312v-86.988281l-75.335938-43.496093-75.332031 43.496093v86.988281l75.332031 43.492188zm0 0" fill="#333"/><path d="m361.332031 200.457031v86.988281l75.335938 43.492188 75.332031-43.492188v-86.988281l-75.332031-43.496093zm0 0" fill="#333"/><path d="m421.667969 443.90625v-86.988281l-75.335938-43.496094-75.332031 43.496094v86.988281l75.332031 43.492188zm0 0" fill="#333"/><path d="m180.667969 287.445312 75.332031 43.492188 75.335938-43.492188v-86.988281l-75.335938-43.496093-75.332031 43.496093zm0 0" fill="#333"/></svg>
