<?xml version="1.0" encoding="UTF-8" standalone="no"?>
<!-- Generator: Adobe Illustrator 16.0.0, SVG Export Plug-In . SVG Version: 6.00 Build 0)  -->

<svg
   xmlns:dc="http://purl.org/dc/elements/1.1/"
   xmlns:cc="http://creativecommons.org/ns#"
   xmlns:rdf="http://www.w3.org/1999/02/22-rdf-syntax-ns#"
   xmlns:svg="http://www.w3.org/2000/svg"
   xmlns="http://www.w3.org/2000/svg"
   xmlns:sodipodi="http://sodipodi.sourceforge.net/DTD/sodipodi-0.dtd"
   xmlns:inkscape="http://www.inkscape.org/namespaces/inkscape"
   version="1.1"
   id="Layer_1"
   x="0px"
   y="0px"
   width="64px"
   height="64px"
   viewBox="0 0 64 64"
   enable-background="new 0 0 64 64"
   xml:space="preserve"
   sodipodi:docname="basic_world.svg"
   inkscape:version="0.92.4 (5da689c313, 2019-01-14)"><metadata
   id="metadata21"><rdf:RDF><cc:Work
       rdf:about=""><dc:format>image/svg+xml</dc:format><dc:type
         rdf:resource="http://purl.org/dc/dcmitype/StillImage" /><dc:title></dc:title></cc:Work></rdf:RDF></metadata><defs
   id="defs19" /><sodipodi:namedview
   pagecolor="#ffffff"
   bordercolor="#666666"
   borderopacity="1"
   objecttolerance="10"
   gridtolerance="10"
   guidetolerance="10"
   inkscape:pageopacity="0"
   inkscape:pageshadow="2"
   inkscape:window-width="716"
   inkscape:window-height="480"
   id="namedview17"
   showgrid="false"
   inkscape:zoom="3.6875"
   inkscape:cx="32"
   inkscape:cy="75.389831"
   inkscape:window-x="274"
   inkscape:window-y="250"
   inkscape:window-maximized="0"
   inkscape:current-layer="Layer_1" />
<path
   fill="none"
   stroke="#000000"
   stroke-width="2"
   stroke-miterlimit="10"
   d="M32.001,0.887c17.184,0,31.113,13.929,31.112,31.113  C63.114,49.185,49.184,63.115,32,63.113C14.815,63.114,0.887,49.185,0.888,32.001C0.885,14.816,14.815,0.887,32.001,0.887z"
   id="path2" />
<line
   fill="none"
   stroke="#000000"
   stroke-width="2"
   stroke-miterlimit="10"
   x1="32"
   y1="1"
   x2="32"
   y2="63"
   id="line4" />
<line
   fill="none"
   stroke="#000000"
   stroke-width="2"
   stroke-miterlimit="10"
   x1="63"
   y1="32"
   x2="1"
   y2="32"
   id="line6" />
<path
   fill="none"
   stroke="#000000"
   stroke-width="2"
   stroke-miterlimit="10"
   d="M30,1c0,0-14,11-14,31s14,31,14,31"
   id="path8" />
<path
   fill="none"
   stroke="#000000"
   stroke-width="2"
   stroke-miterlimit="10"
   d="M34,1c0,0,14,11,14,31S34,63,34,63"
   id="path10" />
<path
   fill="none"
   stroke="#000000"
   stroke-width="2"
   stroke-miterlimit="10"
   d="M8,12c0,0,5,10,24,10s24-10,24-10"
   id="path12" />
<path
   fill="none"
   stroke="#000000"
   stroke-width="2"
   stroke-miterlimit="10"
   d="M8,52c0,0,5-10,24-10s24,10,24,10"
   id="path14" />
</svg>