<svg xmlns="http://www.w3.org/2000/svg" style="display: none;"><symbol id="plant-on-a-hand" viewBox="0 0 114.01 114.01"><title>plant-on-a-hand</title><path d="M62.94,40.509c1.024-2.469,1.709-5.327,1.863-8.323c0.223-3.006-0.191-6.136-1.088-9.177 c-0.932-3.029-2.36-5.982-4.362-8.506c-1.94-2.544-4.407-4.685-6.993-6.089c-2.59-1.403-5.267-2.013-7.142-1.953 c-0.912-0.033-1.718,0.221-2.19,0.347c-0.478,0.161-0.732,0.245-0.732,0.245s0.06,0.256,0.158,0.739 c0.101,0.457,0.113,1.24,0.186,1.962c0.069,1.591-0.089,3.515-0.284,5.614c-0.351,4.136-0.26,8.968,1.241,13.733 c0.746,2.37,1.706,4.738,3.013,6.918c1.248,2.193,2.755,4.223,4.29,5.965c1.391,1.542,4.531,5.112,5.669,6.02 c0.287-2.026,0.537-4.1,0.585-6.206c0.12-1.482,0.019-2.955-0.007-4.408c-0.024-1.461-0.288-2.868-0.412-4.252 c-0.247-1.362-0.579-2.662-0.849-3.906c-0.435-1.199-0.845-2.33-1.223-3.374c-0.532-0.979-1.02-1.879-1.451-2.678 c-0.378-0.839-0.998-1.371-1.365-1.906c-0.818-1.027-1.287-1.615-1.287-1.615s0.512,0.549,1.398,1.516 c0.41,0.514,1.083,1.013,1.524,1.828c0.498,0.777,1.059,1.656,1.672,2.613c0.465,1.042,0.97,2.166,1.507,3.36 c0.368,1.244,0.806,2.562,1.164,3.946c0.231,1.403,0.609,2.849,0.746,4.339c0.133,1.492,0.351,3.01,0.339,4.535 c0.062,1.731,0.039,3.444-0.041,5.13c0.137-0.147,0.294-0.269,0.424-0.431C60.577,45.052,61.884,42.977,62.94,40.509z" fill="#FFFFFF"/><path d="M49.371,53.142c0.228,0.373,0.416,0.729,0.63,1.097c-11.434,2.184-20.709,10.424-24.376,21.259l0.758,0.096 c0.943,0.007,2.384,0.232,4.846,0.667c0.05-0.732,0.305-1.44,0.762-2.039c1.815-2.396,4.454-3.666,7.642-3.666 c4.784,0.014,9.847,0.158,14.967,1.708c2.698,0.812,5.46,0.66,8.265-0.466c8.069-3.23,15.156-2.929,20.882,0.801 c0.709,0.463,1.444,0.952,2.19,1.455C81.863,63.67,72.547,55.924,61.246,54.078c0.31-0.539,0.601-1.076,0.942-1.632 c0.317-0.508,0.952-1.875,0.866-2.197c-0.037-0.2-0.027-0.394-0.037-0.589c-1.15,1.446-2.184,2.9-3.093,4.285 c-0.559-0.07-1.134-0.09-1.706-0.131c0.298-2.156,0.54-4.466,0.656-6.891c-0.18,0.187-0.341,0.385-0.548,0.554 c-0.364,0.245-0.924,2.158-1.051,2.94c-0.2,1.139-0.421,2.217-0.652,3.273c-0.197-0.003-0.381-0.046-0.578-0.046 c-1.646,0-3.263,0.137-4.842,0.375c-0.806-1.201-1.675-2.425-2.658-3.665c-0.01,0.193,0,0.39-0.038,0.588 C48.424,51.268,49.054,52.634,49.371,53.142z" fill="#FFFFFF"/><path d="M67.996,44.304c0.825-0.784,1.756-1.415,2.588-2.103c0.89-0.612,1.796-1.141,2.628-1.67 c0.9-0.414,1.749-0.802,2.532-1.164c0.828-0.239,1.585-0.464,2.259-0.659c0.657-0.243,1.287-0.197,1.776-0.284 c0.988-0.106,1.554-0.166,1.554-0.166s-0.562,0.103-1.54,0.277c-0.476,0.124-1.096,0.12-1.726,0.407 c-0.643,0.238-1.368,0.512-2.162,0.802c-0.732,0.406-1.53,0.847-2.375,1.314c-0.777,0.575-1.612,1.15-2.43,1.805 c-0.764,0.726-1.612,1.395-2.354,2.217c-0.739,0.813-1.53,1.602-2.2,2.505c-1.023,1.227-1.913,2.534-2.759,3.831 c1.102,0.053,4.668-0.421,6.229-0.607c1.741-0.228,3.61-0.633,5.417-1.261c1.828-0.588,3.56-1.461,5.161-2.435 c3.237-1.97,5.69-4.678,7.549-7.206c0.938-1.293,1.807-2.467,2.635-3.34c0.4-0.375,0.801-0.816,1.085-1.027 c0.298-0.221,0.459-0.339,0.459-0.339s-0.103-0.183-0.295-0.512c-0.212-0.304-0.54-0.852-1.077-1.287 c-1.041-0.967-2.864-1.956-5.041-2.447c-2.173-0.486-4.644-0.496-7.019-0.014c-2.399,0.441-4.682,1.41-6.718,2.674 c-2.026,1.287-3.819,2.863-5.195,4.688c-1.399,1.785-2.43,3.749-3.08,5.667c-0.63,1.934-0.919,3.763-0.905,5.228 c-0.007,0.154,0.022,0.306,0.029,0.457c0.798-0.999,1.633-1.986,2.532-2.944C66.295,45.846,67.178,45.086,67.996,44.304z" fill="#FFFFFF"/><path d="M20.782,37.268c0.832,0.873,1.696,2.047,2.631,3.337c1.862,2.529,4.317,5.237,7.549,7.207 c1.605,0.975,3.332,1.845,5.164,2.437c1.805,0.63,3.677,1.033,5.416,1.261c1.562,0.185,5.13,0.659,6.227,0.602 c-0.842-1.297-1.735-2.599-2.758-3.826c-0.669-0.903-1.461-1.688-2.197-2.508c-0.743-0.818-1.595-1.49-2.354-2.216 c-0.818-0.655-1.658-1.23-2.433-1.805c-0.84-0.465-1.643-0.907-2.375-1.314c-0.792-0.291-1.518-0.56-2.159-0.801 c-0.633-0.288-1.248-0.284-1.727-0.407c-0.979-0.18-1.535-0.277-1.535-0.277s0.563,0.06,1.552,0.165 c0.491,0.089,1.117,0.042,1.776,0.284c0.669,0.193,1.427,0.417,2.253,0.659c0.789,0.361,1.636,0.751,2.538,1.164 c0.83,0.522,1.735,1.059,2.628,1.672c0.83,0.685,1.762,1.317,2.585,2.103c0.816,0.782,1.696,1.538,2.45,2.411 c0.896,0.953,1.735,1.944,2.532,2.943c0.005-0.151,0.036-0.301,0.026-0.458c0.017-1.461-0.271-3.291-0.902-5.226 c-0.647-1.917-1.678-3.883-3.083-5.666c-1.374-1.826-3.164-3.403-5.189-4.69c-2.04-1.261-4.32-2.231-6.721-2.673 c-2.372-0.484-4.846-0.478-7.019,0.014c-2.173,0.491-4.009,1.479-5.046,2.447c-0.532,0.435-0.869,0.98-1.076,1.285 c-0.19,0.33-0.294,0.508-0.294,0.508s0.158,0.116,0.456,0.344C19.983,36.449,20.383,36.89,20.782,37.268z" fill="#FFFFFF"/><path d="M99.223,90.565c-4.932-6.69-11.386-11.68-18.188-16.111c-5.521-3.594-11.811-2.827-17.669-0.482 c-3.588,1.434-7.137,1.608-10.586,0.561c-4.601-1.389-9.226-1.539-13.921-1.553c-2.012-0.008-3.684,0.697-4.882,2.275 c-0.669,0.883,4.812,4.555,9.514,4.555c-0.873,1.742-16.07-1.947-18.096-1.797l-11.497-1.471c-4.086-0.332-4.08-1.876-8.099,0.396 c-0.137,0.078-0.337,0.078-0.501,0.068c-2.236-0.127-3.498,0.582-4.742,2.063c-0.718,0.853-0.659,1.903-0.277,2.898 c0.404,1.044,1.43,0.773,2.271,1.105c5.142,2.036,6.8,3.032,13.772,4.754c4.958,1.225,9.791,2.72,14.743,3.839 c2.046,0.466,4.129,0.812,5.975,1.849c3.922,2.21,8.092,2.878,12.573,2.676c5.085-0.232,10.185-0.027,15.283-0.058 c8.946-0.041,15.739,3.541,20.338,11.419l28.777-0.062C107.731,100.144,104.962,98.364,99.223,90.565z" fill="#FFFFFF"/></symbol><symbol id="plant" viewBox="0 0 511 511.99771"><title>plant</title><path d="m487.628906 139.1875c-27.707031-27.707031-70.351562-30.566406-97.78125-3.140625-14.59375 14.597656-20.582031 33.949219-17.371094 56.058594-48.855468-7.101563-80.980468 33.570312-74.308593 74.304687-17.3125 24.605469-26.785157 54.320313-26.785157 84.460938v10.132812h-30v-86.832031c0-25.074219-5.804687-53.195313-16.457031-80.285156 12.550781-10.507813 22.878907-22.59375 29.339844-36.453125 17.519531-37.566406 1.300781-82.144532-36.273437-99.664063-21.761719-10.148437-45.652344-9.152343-65.550782 1.808594-5.429687-22.378906-20.855468-42.101563-43.203125-52.523437-37.570312-17.519532-82.148437-1.296876-99.667969 36.277343-31.304687 67.132813 27.359376 176.945313 41.136719 201.082031 3.65625 7.613282 9.191407 12.882813 17.621094 11.691407 1.054687-.148438 75.078125-11.585938 131.199219-44.527344 7.691406 21.472656 11.855468 43.207031 11.855468 62.59375v86.832031h-26.972656l-35.542968-53.320312c-4.597657-6.894532-13.910157-8.753906-20.800782-4.160156-6.894531 4.59375-8.757812 13.90625-4.160156 20.800781l24.453125 36.679687h-41.972656c-8.285157 0-15 6.714844-15 14.996094v30c0 19.554688 12.539062 36.226562 30 42.417969v17.582031c0 11.953125 4.59375 23.34375 12.941406 32.078125 8.582031 8.976563 19.96875 13.917969 32.054687 13.917969h179.996094c12.089844 0 23.472656-4.941406 32.054688-13.921875 8.347656-8.730469 12.945312-20.121094 12.945312-32.074219v-17.582031c17.457032-6.191407 29.996094-22.863281 29.996094-42.417969v-30c0-8.28125-6.714844-14.996094-14.996094-14.996094h-105v-10.132812c0-17.648438 4.089844-35.109375 11.734375-50.90625 1.984375 2.53125 4.125 4.972656 6.445313 7.289062 35.398437 35.402344 90.957031 24.175782 172.523437 18.351563 7.421875-.519531 13.367188-6.5 13.894531-13.894531 5.839844-81.746094 17.019532-137.152344-18.347656-172.523438zm-423.652344 66.148438c-19.335937-39.808594-45.890624-109.28125-27.214843-149.324219 10.511719-22.542969 37.253906-32.277344 59.796875-21.765625 22.359375 10.425781 34.546875 37.054687 24.199218 59.582031zm25.546876 15.941406s58.226562-114.355469 58.308593-114.527344c.007813-.007812.011719-.019531.015625-.027344 10.617188-22.765625 35.195313-32.152344 57.46875-21.765625 22.539063 10.511719 32.277344 37.253907 21.765625 59.800781-19.164062 41.089844-93.234375 65.980469-137.558593 76.519532zm301.855468 184.726562c0 8.269532-6.726562 15-15 15h-44.996094c-8.285156 0-15 6.714844-15 14.996094 0 8.285156 6.714844 15 15 15h29.996094v15c0 8.523438-7.007812 16-15 16h-179.992187c-7.992188 0-15-7.476562-15-16v-15h30c8.28125 0 15-6.714844 15-15 0-8.28125-6.71875-14.996094-15-14.996094h-45c-8.269531 0-15-6.730468-15-15v-15h269.992187zm19.683594-248.742187c14.886719-14.886719 38.679688-13.535157 55.355469 3.140625 20.699219 20.699218 17.292969 56.648437 12.222656 116.652344l-70.832031-70.828126c-3.25-6.671874-13.789063-31.925781 3.253906-48.964843zm-70.289062 128.78125c-8.078126-8.074219-12.855469-18.199219-13.457032-28.503907-1.066406-18.253906 12.273438-36.308593 34.203125-36.308593 11.117188 0 21.207031 4.320312 25.074219 6.207031l70.832031 70.832031c-60 5.070313-95.949219 8.476563-116.652343-12.226562zm0 0" fill="#FFFFFF"/></symbol><symbol id="food-and-restaurant" viewBox="0 -12 512 511"><title>food-and-restaurant</title><path d="m90.332031 43.992188v86.992187l75.335938 43.492187 75.332031-43.492187v-86.992187l-75.332031-43.492188zm0 0" fill="#FFFFFF"/><path d="m165.667969 313.421875-75.335938 43.496094v86.988281l75.335938 43.492188 75.332031-43.492188v-86.988281zm0 0" fill="#FFFFFF"/><path d="m346.332031 174.476562 75.335938-43.492187v-86.992187l-75.335938-43.492188-75.332031 43.492188v86.992187zm0 0" fill="#FFFFFF"/><path d="m150.667969 287.445312v-86.988281l-75.335938-43.496093-75.332031 43.496093v86.988281l75.332031 43.492188zm0 0" fill="#FFFFFF"/><path d="m361.332031 200.457031v86.988281l75.335938 43.492188 75.332031-43.492188v-86.988281l-75.332031-43.496093zm0 0" fill="#FFFFFF"/><path d="m421.667969 443.90625v-86.988281l-75.335938-43.496094-75.332031 43.496094v86.988281l75.332031 43.492188zm0 0" fill="#FFFFFF"/><path d="m180.667969 287.445312 75.332031 43.492188 75.335938-43.492188v-86.988281l-75.335938-43.496093-75.332031 43.496093zm0 0" fill="#FFFFFF"/></symbol></svg>